<svg height="600" viewBox="-36 -24 72 48" width="900" xmlns="http://www.w3.org/2000/svg" xmlns:xlink="http://www.w3.org/1999/xlink"><path d="m-36-24h72v48h-72z" fill="#fff"/><g transform="matrix(.55470019 -.83205032 .83205032 .55470019 .000001 .000001)"><g id="a"><path id="b" d="m-6-25h12m-12 3h12m-12 3h12" stroke="#000" stroke-width="2"/><use height="1052.3622" width="744.09448" xlink:href="#b" y="44"/></g><path d="m0 17v10" stroke="#fff"/><circle fill="#da251d" r="12"/><path d="m0-12a6 6 0 0 0 0 12 6 6 0 0 1 0 12 12 12 0 0 1 0-24z" fill="#29166f"/></g><g transform="matrix(.5547002 .83205032 -.83205032 .5547002 .000001 .000001)"><use height="48" width="72" xlink:href="#a"/><path d="m0-23.5v3m0 37.5v3.5m0 3v3" stroke="#fff"/></g></svg>