<?xml version="1.0" encoding="UTF-8" standalone="no"?>
<svg height="40" width="40">
  <g
     transform="translate(-648.8939,-329.85941)"
     id="layer1"
     inkscape:groupmode="layer"
     inkscape:label="Capa 1">
    <g
       transform="translate(349.98565,-293.98483)"
       id="g4234">
      <g
         id="g3849-5-7-2-2"
         transform="translate(-114.67816,-11.956614)">
        <g
           transform="translate(-89.418988,4.8662534)"
           id="g3840-7-1-0-1">
          <g
             id="g3834-3-2-8-3"
             transform="translate(1e-4,1.1401374)">
            <g
               transform="translate(5e-5,-0.73329175)"
               id="g3830-6-4-3-5" />
          </g>
        </g>
      </g>
      <g
         id="g4166"
         transform="matrix(0,1.1056337,-0.9506969,0,931.0664,249.68773)">
        <path
           sodipodi:nodetypes="ccsccs"
           id="path4158"
           d="m 358.98215,643.05862 c 1.25297,-1.10714 3.44345,-1.52679 5.44642,-1.07143 l -0.14285,14.39285 c -0.0293,2.94777 -7.41072,-0.89285 -7.41072,-0.89285 v 0 0"
           style="fill:none;stroke:#000000;stroke-width:1px;stroke-linecap:butt;stroke-linejoin:round;stroke-opacity:1" />
        <path
           sodipodi:nodetypes="czczcccccczcc"
           id="path4160"
           d="m 354.375,646.91576 c 0,0 3.02395,0.66193 3.83929,2.67857 0.81534,2.01664 -1.60714,8.21429 -1.60714,8.21429 0,0 -9.72997,-4.52576 -10.35715,-5.80358 -0.62718,-1.27782 0.26786,-4.55357 0.26786,-4.55357 -4.17141,-7.79318 3.7209,-9.58329 9.24511,-10.67099 l 0.31205,-1.96159 -4.8277,-1.20581 0.0505,-2.15003 c 6.91051,1.15036 14.31691,3.64295 7.18436,8.93485 0,0 0.42022,1.5548 0.31833,3.01777 -0.1019,1.46296 -4.42548,3.50009 -4.42548,3.50009 z"
           style="fill:none;stroke:#000000;stroke-width:1px;stroke-linecap:butt;stroke-linejoin:round;stroke-opacity:1" />
        <path
           sodipodi:nodetypes="cccc"
           id="path4162"
           d="m 358.49693,642.28086 -1.63966,-12.76223 -1.68768,12.96037 z"
           style="fill:none;stroke:#000000;stroke-width:1px;stroke-linecap:butt;stroke-linejoin:round;stroke-opacity:1" />
        <circle
           transform="matrix(0.74437527,0,0,0.74437527,78.140463,309.27465)"
           id="path4164"
           style="color:#000000;display:inline;overflow:visible;visibility:visible;fill:#ffffff;fill-opacity:1;stroke:#ffffff;stroke-width:1;stroke-linecap:round;stroke-linejoin:round;stroke-miterlimit:4;stroke-dasharray:none;stroke-dashoffset:0;stroke-opacity:1;marker:none;enable-background:accumulate"
           cx="366.65179"
           cy="444.72824"
           r="0.75344813" />
      </g>
    </g>
  </g>
</svg>
